# xmcd CD database file
#
# Track frame offsets:
#	150
#	21845
#	41327
#	60010
#	78127
#	108395
#	131922
#	149175
#	170480
#	191687
#	205952
#	223297
#
# Disc length: 3238 seconds
#
# Revision: 0
# Processed by: cddbd v1.5.1PL0 Copyright (c) Steve Scherf et al.
# Submitted via: CDex 1.50
#
DISCID=b00ca40c
DTITLE=Various Artist - Christmas Celebrations
DYEAR=1999
DGENRE=Jazz
TTITLE0=The Braxton Brothers-The Christmas Song
TTITLE1=Michael Ruff and W.G. Snuffy Walden-O Christmas Tree
TTITLE2=Double Scale-It's That Time of the Year
TTITLE3=Tom Grant-I'll Be Home for Christmas
TTITLE4=Chieli Minucci-Magic
TTITLE5=Earl Klugh-We Three Kings
TTITLE6=Ricky Peterson-In the City
TTITLE7=Michael Franks-Island Christmas
TTITLE8=Specil EFX featuring Chieli Minucci-Joyous
TTITLE9=Larry Coryell-Deck the Halls
TTITLE10=Etta James-Please Come Home for Christmas
TTITLE11=Tim Weisberg-Seasoned Greetings
EXTD=YEAR: 1999
EXTT0=
EXTT1=
EXTT2=
EXTT3=
EXTT4=
EXTT5=
EXTT6=
EXTT7=
EXTT8=
EXTT9=
EXTT10=
EXTT11=
PLAYORDER=
